<svg id="add_thread" width="29" height="24" viewBox="0 0 29 24" fill="none" xmlns="http://www.w3.org/2000/svg">
<path d="M18.3064 19.8544C16.5462 20.965 14.6099 21.6819 12.5516 21.9851C12.1911 22.0383 11.9422 22.3734 11.9955 22.7335C12.0487 23.0937 12.3841 23.3426 12.7436 23.2893C14.9851 22.9594 17.0934 22.1787 19.0099 20.9692C19.4294 20.7045 19.7274 20.3042 19.8648 19.8431C20.0017 19.8544 20.1391 19.864 20.2754 19.8709C20.4827 19.8822 20.6908 19.8867 20.8985 19.8867C23.231 19.8867 25.5007 19.2326 27.4628 17.995C27.9521 17.6856 28.2442 17.1545 28.2442 16.575C28.2442 14.6115 27.48 12.7675 26.093 11.3826C25.3335 10.6231 24.4364 10.0518 23.4587 9.68861C24.4848 8.91202 25.1495 7.68155 25.1495 6.2983C25.1495 3.95444 23.2424 2.04762 20.8982 2.04762C18.5539 2.04762 16.6468 3.95444 16.6468 6.2983C16.6468 7.68292 17.3128 8.91511 18.3411 9.6917C17.3818 10.0488 16.4981 10.6053 15.7596 11.3283C14.9964 10.8058 14.1666 10.4 13.2922 10.1198C14.8073 9.14822 15.8146 7.45084 15.8146 5.52136C15.8146 2.51042 13.3646 0.0611572 10.3537 0.0611572C7.3424 0.0611572 4.89245 2.51042 4.89245 5.52136C4.89245 7.45255 5.90147 9.15131 7.41896 10.1222C3.55795 11.3651 0.756436 14.9905 0.756436 19.2587C0.756436 19.9581 1.108 20.5974 1.69714 20.9692C4.00255 22.4238 6.66365 23.2766 9.39238 23.4359C9.40542 23.4366 9.41847 23.437 9.43117 23.437C9.77793 23.437 10.0684 23.1664 10.0886 22.8162C10.1099 22.4527 9.83252 22.1409 9.46894 22.1196C6.96234 21.9737 4.51788 21.1903 2.40061 19.8544C2.19668 19.7253 2.0748 19.5028 2.0748 19.2587C2.0748 14.6946 5.78852 10.9816 10.3533 10.9816C12.5643 10.9816 14.6438 11.843 16.2084 13.4075C17.7715 14.9682 18.6322 17.0464 18.6322 19.2587C18.6322 19.5028 18.5103 19.7253 18.3064 19.8544C18.5103 19.7253 16.5462 20.965 18.3064 19.8544ZM6.2108 5.52136C6.2108 3.23758 8.06921 1.37952 10.3533 1.37952C12.6378 1.37952 14.4959 3.23758 14.4959 5.52136C14.4959 7.80515 12.6378 9.66321 10.3533 9.66321C8.06921 9.66321 6.2108 7.80515 6.2108 5.52136ZM20.8982 3.36598C22.5152 3.36598 23.8312 4.68125 23.8312 6.2983C23.8312 7.91329 22.5183 9.22753 20.9033 9.23028C20.9019 9.23028 20.9002 9.23028 20.8985 9.23028C20.8961 9.23028 20.894 9.23028 20.8916 9.23028C19.2773 9.22684 17.9651 7.91295 17.9651 6.2983C17.9651 4.68125 19.2808 3.36598 20.8982 3.36598ZM20.1875 10.5912C20.4247 10.5617 20.6643 10.549 20.9033 10.549C22.5111 10.55 24.0231 11.1773 25.1615 12.3154C26.299 13.4514 26.9259 14.9641 26.9259 16.575C26.9259 16.7 26.863 16.8146 26.7587 16.8805C25.0084 17.9847 22.9818 18.5687 20.8985 18.5687C20.7134 18.5687 20.5284 18.5645 20.3437 18.5542C20.2033 18.5474 20.0625 18.5374 19.9231 18.5251C19.7515 16.2372 18.7785 14.111 17.1401 12.4747C17.0303 12.3648 16.9177 12.2577 16.8033 12.1537C17.7368 11.2902 18.9295 10.7375 20.1875 10.5912Z" fill="white"/>
</svg>
