<svg id="block" width="18" height="18" viewBox="0 0 18 18" fill="none" xmlns="http://www.w3.org/2000/svg">
<path d="M9 0C7.21997 0 5.47991 0.527841 3.99987 1.51677C2.51983 2.50571 1.36628 3.91131 0.685088 5.55585C0.00389956 7.20038 -0.17433 9.00998 0.172937 10.7558C0.520203 12.5016 1.37737 14.1053 2.63604 15.364C3.89472 16.6226 5.49836 17.4798 7.24419 17.8271C8.99002 18.1743 10.7996 17.9961 12.4442 17.3149C14.0887 16.6337 15.4943 15.4802 16.4832 14.0001C17.4722 12.5201 18 10.78 18 9C18 7.8181 17.7672 6.64778 17.3149 5.55585C16.8626 4.46392 16.1997 3.47177 15.364 2.63604C14.5282 1.80031 13.5361 1.13738 12.4442 0.685084C11.3522 0.232792 10.1819 0 9 0ZM9 16.2C7.09044 16.2 5.2591 15.4414 3.90883 14.0912C2.55857 12.7409 1.8 10.9096 1.8 9C1.79802 7.40101 2.33372 5.84779 3.321 4.59L13.41 14.679C12.1522 15.6663 10.599 16.202 9 16.2ZM14.679 13.41L4.59 3.321C5.84779 2.33371 7.40101 1.79801 9 1.8C10.9096 1.8 12.7409 2.55857 14.0912 3.90883C15.4414 5.25909 16.2 7.09044 16.2 9C16.202 10.599 15.6663 12.1522 14.679 13.41Z" fill="white"/>
</svg>
