<svg id="add_group" width="70" height="70" viewBox="0 0 70 70" fill="none" xmlns="http://www.w3.org/2000/svg">
<g clip-path="url(#clip0)">
<path d="M68.9746 33.9693C68.408 33.9693 67.9492 34.428 67.9492 34.9947C67.9492 43.7938 64.5222 52.0669 58.2988 58.2892C52.0754 64.5115 43.8013 67.938 35 67.938C26.1987 67.938 17.9246 64.5115 11.7012 58.2892C5.47836 52.0663 2.05078 43.7938 2.05078 34.9947C2.05078 26.195 5.47783 17.9219 11.7012 11.6996C17.9246 5.47729 26.1987 2.05078 35 2.05078C43.0098 2.05078 50.7307 4.95872 56.7399 10.239C62.6952 15.4711 66.5665 22.6537 67.6405 30.4642C67.7174 31.0255 68.2371 31.417 68.7957 31.3406C69.357 31.2637 69.749 30.7462 69.6721 30.1849C68.5308 21.8867 64.4191 14.2556 58.0937 8.6982C51.7096 3.08899 43.5081 0 35 0C25.6513 0 16.8618 3.64014 10.2512 10.2496C3.64067 16.8591 0 25.647 0 34.9947C0 44.3417 3.64067 53.1297 10.2512 59.7392C16.8618 66.3486 25.6513 69.9888 35 69.9888C44.3487 69.9888 53.1382 66.3486 59.7488 59.7392C66.3593 53.1297 70 44.3417 70 34.9947C70 34.428 69.5412 33.9693 68.9746 33.9693Z" fill="white"/>
<path d="M40.9211 47.9958C38.183 49.7235 35.1709 50.8386 31.9692 51.3102C31.4084 51.3929 31.0213 51.9142 31.104 52.4744C31.1868 53.0346 31.7086 53.4218 32.2677 53.339C35.7546 52.8258 39.0343 51.6114 42.0154 49.7299C42.668 49.3181 43.1315 48.6954 43.3452 47.9782C43.5583 47.9958 43.7719 48.0107 43.9839 48.0214C44.3065 48.039 44.6301 48.046 44.9532 48.046C48.5816 48.046 52.1123 47.0286 55.1644 45.1033C55.9254 44.6221 56.3799 43.796 56.3799 42.8945C56.3799 39.8402 55.1911 36.9718 53.0335 34.8174C51.8522 33.636 50.4567 32.7474 48.9357 32.1823C50.532 30.9743 51.5659 29.0602 51.5659 26.9085C51.5659 23.2625 48.5992 20.2964 44.9527 20.2964C41.3061 20.2964 38.3394 23.2625 38.3394 26.9085C38.3394 29.0624 39.3755 30.9791 40.975 32.1871C39.4829 32.7426 38.1082 33.6083 36.9594 34.733C35.7722 33.9202 34.4814 33.2889 33.1212 32.8531C35.478 31.3417 37.0449 28.7014 37.0449 25.7C37.0449 21.0163 33.2339 17.2063 28.5502 17.2063C23.866 17.2063 20.0549 21.0163 20.0549 25.7C20.0549 28.704 21.6245 31.3465 23.985 32.8569C17.979 34.7901 13.6211 40.4298 13.6211 47.0692C13.6211 48.1571 14.168 49.1515 15.0844 49.7299C18.6706 51.9927 22.8101 53.3193 27.0548 53.5671C27.0751 53.5681 27.0954 53.5687 27.1152 53.5687C27.6546 53.5687 28.1064 53.1478 28.1379 52.6031C28.171 52.0375 27.7395 51.5526 27.1739 51.5195C23.2747 51.2925 19.4723 50.0738 16.1787 47.9958C15.8615 47.795 15.6719 47.4489 15.6719 47.0692C15.6719 39.9694 21.4488 34.1936 28.5496 34.1936C31.989 34.1936 35.2238 35.5336 37.6575 37.9673C40.089 40.3951 41.4279 43.6277 41.4279 47.0692C41.4279 47.4489 41.2383 47.795 40.9211 47.9958C41.2383 47.795 38.183 49.7235 40.9211 47.9958ZM22.1057 25.7C22.1057 22.1474 24.9966 19.2571 28.5496 19.2571C32.1033 19.2571 34.9936 22.1474 34.9936 25.7C34.9936 29.2525 32.1033 32.1428 28.5496 32.1428C24.9966 32.1428 22.1057 29.2525 22.1057 25.7ZM44.9527 22.3471C47.4681 22.3471 49.5151 24.3931 49.5151 26.9085C49.5151 29.4207 47.4729 31.4651 44.9607 31.4694C44.9586 31.4694 44.9559 31.4694 44.9532 31.4694C44.9495 31.4694 44.9463 31.4694 44.9425 31.4694C42.4314 31.464 40.3902 29.4202 40.3902 26.9085C40.3902 24.3931 42.4367 22.3471 44.9527 22.3471ZM43.8472 33.5864C44.2162 33.5405 44.589 33.5207 44.9607 33.5207C47.4617 33.5223 49.8137 34.498 51.5846 36.2684C53.3539 38.0356 54.3291 40.3887 54.3291 42.8945C54.3291 43.0889 54.2314 43.2672 54.069 43.3698C51.3464 45.0873 48.1939 45.9957 44.9532 45.9957C44.6654 45.9957 44.3775 45.9893 44.0902 45.9733C43.8717 45.9626 43.6528 45.9471 43.436 45.9279C43.1689 42.369 41.6554 39.0615 39.1069 36.5162C38.936 36.3453 38.7608 36.1787 38.583 36.0169C40.0351 34.6737 41.8904 33.8139 43.8472 33.5864Z" fill="white"/>
</g>
<defs>
<clipPath id="clip0">
<rect width="70" height="70" fill="white"/>
</clipPath>
</defs>
</svg>
